<svg width="17" height="20" viewBox="0 0 17 20" fill="none" xmlns="http://www.w3.org/2000/svg">
<rect width="17" height="20" fill="#E5E5E5"/>
<g clip-path="url(#clip0_18_81)">
<rect width="375" height="5478" transform="translate(-179 -3937)" fill="white"/>
<mask id="mask0_18_81" style="mask-type:alpha" maskUnits="userSpaceOnUse" x="-4" y="-2" width="25" height="24">
<rect x="-3.5" y="-2" width="24" height="24" fill="#D9D9D9"/>
</mask>
<g mask="url(#mask0_18_81)">
<path d="M8.5 20C6.18333 19.4167 4.271 18.0873 2.763 16.012C1.25433 13.9373 0.5 11.6333 0.5 9.1V3L8.5 0L16.5 3V9.1C16.5 11.6333 15.746 13.9373 14.238 16.012C12.7293 18.0873 10.8167 19.4167 8.5 20ZM8.5 15C9.88333 15 11.0627 14.5123 12.038 13.537C13.0127 12.5623 13.5 11.3833 13.5 10C13.5 8.61667 13.0127 7.43733 12.038 6.462C11.0627 5.48733 9.88333 5 8.5 5C7.11667 5 5.93767 5.48733 4.963 6.462C3.98767 7.43733 3.5 8.61667 3.5 10C3.5 11.3833 3.98767 12.5623 4.963 13.537C5.93767 14.5123 7.11667 15 8.5 15ZM10.15 12.35L8 10.2V7H9V9.8L10.85 11.65L10.15 12.35Z" fill="url(#paint0_linear_18_81)"/>
</g>
<rect x="-21.5" y="-20" width="60" height="60" rx="30" stroke="url(#paint1_linear_18_81)" stroke-width="4"/>
</g>
<defs>
<linearGradient id="paint0_linear_18_81" x1="-16.25" y1="-25.8984" x2="36.5449" y2="-19.1148" gradientUnits="userSpaceOnUse">
<stop offset="0.21799" stop-color="#4200FF" stop-opacity="0.99"/>
<stop offset="1" stop-color="#37E2D5"/>
</linearGradient>
<linearGradient id="paint1_linear_18_81" x1="-90.5" y1="-104.875" x2="118.768" y2="-71.2639" gradientUnits="userSpaceOnUse">
<stop offset="0.21799" stop-color="#4200FF" stop-opacity="0.99"/>
<stop offset="1" stop-color="#37E2D5"/>
</linearGradient>
<clipPath id="clip0_18_81">
<rect width="375" height="5478" fill="white" transform="translate(-179 -3937)"/>
</clipPath>
</defs>
</svg>
