<svg width="20" height="21" viewBox="0 0 20 21" fill="none" xmlns="http://www.w3.org/2000/svg">
<rect width="20" height="21" fill="#E5E5E5"/>
<g clip-path="url(#clip0_18_81)">
<rect width="375" height="5478" transform="translate(-180 -5426)" fill="white"/>
<rect width="375" height="438.095" transform="translate(-180 -386)" fill="white"/>
<path fill-rule="evenodd" clip-rule="evenodd" d="M17.0859 2.92071C16.1634 1.99214 15.0658 1.25584 13.8567 0.754494C12.6476 0.253145 11.3511 -0.00329476 10.0421 3.19568e-05C4.55351 3.19568e-05 0.0854131 4.46702 0.0831946 9.95786C0.0831946 11.7127 0.541319 13.4254 1.41209 14.9362L0 20.0954L5.27897 18.7099C6.73919 19.5048 8.37513 19.9216 10.0377 19.9223H10.0421C15.5296 19.9223 19.9977 15.4554 20 9.96451C20.0037 8.65613 19.7481 7.35996 19.248 6.15095C18.7478 4.94193 18.013 3.84403 17.0859 2.92071ZM10.0421 18.2418H10.0388C8.5563 18.242 7.10108 17.8431 5.82583 17.0871L5.52412 16.9074L2.39156 17.7293L3.22684 14.6755L3.0305 14.3627C2.20165 13.0432 1.76287 11.5161 1.76483 9.95786C1.76705 5.39436 5.47974 1.68167 10.0455 1.68167C11.1328 1.67925 12.2098 1.89252 13.2142 2.30912C14.2186 2.72573 15.1304 3.3374 15.8968 4.10873C16.6673 4.87639 17.278 5.78914 17.6937 6.79425C18.1093 7.79935 18.3216 8.87687 18.3183 9.96451C18.3161 14.528 14.6034 18.2418 10.0421 18.2418ZM14.5823 12.0422C14.3327 11.9168 13.1103 11.3156 12.8818 11.2324C12.6544 11.1492 12.4892 11.1082 12.3228 11.3566C12.1564 11.6051 11.6794 12.1653 11.5341 12.3317C11.3888 12.4981 11.2435 12.518 10.995 12.3938C10.7465 12.2696 9.94452 12.0067 8.99388 11.1592C8.254 10.4992 7.75484 9.68498 7.60952 9.4354C7.46421 9.18581 7.59399 9.05159 7.71934 8.92736C7.83138 8.81643 7.96782 8.63673 8.09205 8.49142C8.21629 8.3461 8.25733 8.24294 8.34053 8.07655C8.42372 7.91017 8.38268 7.76485 8.31945 7.64061C8.25733 7.51527 7.75927 6.29065 7.55184 5.79259C7.35107 5.31006 7.14585 5.3744 6.99278 5.36774C6.83424 5.36126 6.67557 5.3583 6.5169 5.35887C6.39073 5.36208 6.26658 5.39133 6.15225 5.44478C6.03791 5.49822 5.93584 5.57472 5.85246 5.66946C5.62395 5.91904 4.98169 6.52026 4.98169 7.74489C4.98169 8.96951 5.87353 10.1531 5.99777 10.3195C6.12201 10.4859 7.75262 12.9983 10.2485 14.0765C10.843 14.3328 11.3067 14.4859 11.6672 14.6012C12.2629 14.7909 12.8053 14.7632 13.2346 14.6999C13.7127 14.629 14.7066 14.0987 14.914 13.5175C15.1214 12.9362 15.1214 12.4382 15.0593 12.3339C14.9972 12.2296 14.8297 12.1664 14.5823 12.0422Z" fill="#4200FF"/>
</g>
<defs>
<clipPath id="clip0_18_81">
<rect width="375" height="5478" fill="white" transform="translate(-180 -5426)"/>
</clipPath>
</defs>
</svg>
