<svg width="168" height="32" viewBox="0 0 168 32" fill="none" xmlns="http://www.w3.org/2000/svg">
<path d="M21.822 12.5425C21.822 15.2052 21.3404 17.4704 20.3771 19.3383C19.4214 21.2062 18.1168 22.6329 16.4632 23.6185C14.8173 24.5961 12.9665 25.0849 10.911 25.0849C8.84031 25.0849 6.98199 24.5922 5.33604 23.6066C3.6901 22.621 2.38927 21.1942 1.43356 19.3264C0.477855 17.4585 0 15.1972 0 12.5425C0 9.87978 0.477855 7.61451 1.43356 5.74665C2.38927 3.87879 3.6901 2.45604 5.33604 1.47839C6.98199 0.492798 8.84031 0 10.911 0C12.9665 0 14.8173 0.492798 16.4632 1.47839C18.1168 2.45604 19.4214 3.87879 20.3771 5.74665C21.3404 7.61451 21.822 9.87978 21.822 12.5425ZM16.8273 12.5425C16.8273 10.8177 16.5808 9.36314 16.0878 8.17884C15.6023 6.99454 14.9159 6.09638 14.0284 5.48435C13.141 4.87233 12.1019 4.56632 10.911 4.56632C9.72017 4.56632 8.68102 4.87233 7.79358 5.48435C6.90614 6.09638 6.2159 6.99454 5.72288 8.17884C5.23744 9.36314 4.99472 10.8177 4.99472 12.5425C4.99472 14.2673 5.23744 15.7218 5.72288 16.9061C6.2159 18.0904 6.90614 18.9886 7.79358 19.6006C8.68102 20.2126 9.72017 20.5186 10.911 20.5186C12.1019 20.5186 13.141 20.2126 14.0284 19.6006C14.9159 18.9886 15.6023 18.0904 16.0878 16.9061C16.5808 15.7218 16.8273 14.2673 16.8273 12.5425Z" fill="url(#paint0_linear_966_28676)"/>
<path d="M33.2536 32C31.6835 32 30.3371 31.7735 29.2145 31.3204C28.0996 30.8753 27.2121 30.2673 26.5522 29.4963C25.8923 28.7253 25.4638 27.8589 25.2666 26.8972L29.7493 26.2653C29.8858 26.6309 30.102 26.9727 30.3978 27.2906C30.6936 27.6085 31.0842 27.8629 31.5697 28.0536C32.0627 28.2524 32.6619 28.3517 33.3673 28.3517C34.4216 28.3517 35.2901 28.0815 35.9728 27.541C36.663 27.0084 37.0081 26.1143 37.0081 24.8584V21.5082H36.8033C36.591 22.0169 36.2724 22.4978 35.8476 22.9508C35.4229 23.4039 34.8767 23.7735 34.2093 24.0596C33.5418 24.3458 32.7454 24.4888 31.82 24.4888C30.5078 24.4888 29.3132 24.1709 28.2361 23.535C27.1666 22.8912 26.3133 21.9096 25.6761 20.5902C25.0466 19.2628 24.7318 17.5857 24.7318 15.5589C24.7318 13.4844 25.0542 11.7516 25.6989 10.3607C26.3436 8.9697 27.2007 7.92847 28.2702 7.23696C29.3473 6.54546 30.5268 6.1997 31.8086 6.1997C32.7871 6.1997 33.6063 6.37457 34.2662 6.72429C34.926 7.06607 35.457 7.49528 35.859 8.01192C36.2686 8.52062 36.5834 9.02136 36.8033 9.51416H36.9854V6.43815H41.7981V24.93C41.7981 26.4878 41.434 27.7914 40.7058 28.8405C39.9776 29.8897 38.9688 30.6766 37.6794 31.2012C36.3975 31.7337 34.9223 32 33.2536 32ZM33.356 20.6736C34.1372 20.6736 34.7971 20.4709 35.3356 20.0656C35.8818 19.6523 36.2989 19.0641 36.5872 18.301C36.883 17.5301 37.0309 16.608 37.0309 15.535C37.0309 14.462 36.8868 13.532 36.5985 12.7452C36.3103 11.9503 35.8931 11.3343 35.347 10.8972C34.8009 10.46 34.1372 10.2414 33.356 10.2414C32.5595 10.2414 31.8883 10.468 31.3421 10.921C30.796 11.3661 30.3826 11.9861 30.102 12.7809C29.8213 13.5758 29.681 14.4938 29.681 15.535C29.681 16.5922 29.8213 17.5062 30.102 18.2772C30.3902 19.0402 30.8036 19.6324 31.3421 20.0537C31.8883 20.467 32.5595 20.6736 33.356 20.6736Z" fill="url(#paint1_linear_966_28676)"/>
<path d="M50.6384 25.0969C49.5234 25.0969 48.5297 24.8942 47.6575 24.4888C46.7852 24.0755 46.0949 23.4675 45.5868 22.6647C45.0861 21.854 44.8358 20.8445 44.8358 19.6364C44.8358 18.619 45.0141 17.7645 45.3706 17.073C45.7271 16.3815 46.2125 15.8251 46.8269 15.4039C47.4413 14.9826 48.1391 14.6647 48.9204 14.4501C49.7092 14.2355 50.536 14.0845 51.4007 13.997C52.417 13.8857 53.2362 13.7824 53.8582 13.687C54.4802 13.5837 54.9315 13.4327 55.2121 13.234C55.4928 13.0353 55.6331 12.7412 55.6331 12.3517V12.2802C55.6331 11.5251 55.4055 10.9409 54.9504 10.5276C54.5029 10.1143 53.8658 9.9076 53.039 9.9076C52.1667 9.9076 51.4727 10.1103 50.9569 10.5156C50.4411 10.9131 50.0998 11.4138 49.933 12.0179L45.4502 11.6364C45.6778 10.5236 46.1253 9.56185 46.7928 8.75112C47.4602 7.93244 48.3211 7.30452 49.3755 6.86736C50.4374 6.42226 51.6661 6.1997 53.0618 6.1997C54.0326 6.1997 54.9618 6.31893 55.8492 6.55738C56.7443 6.79583 57.5369 7.16543 58.2271 7.66617C58.925 8.16692 59.4749 8.81073 59.8769 9.59762C60.2789 10.3766 60.4799 11.3105 60.4799 12.3994V24.7511H55.8834V22.2116H55.7469C55.4662 22.7839 55.0908 23.2886 54.6205 23.7258C54.1502 24.155 53.5851 24.4928 52.9252 24.7392C52.2653 24.9776 51.503 25.0969 50.6384 25.0969ZM52.0264 21.5917C52.7394 21.5917 53.369 21.4446 53.9151 21.1505C54.4612 20.8485 54.8898 20.4431 55.2007 19.9344C55.5117 19.4257 55.6672 18.8495 55.6672 18.2057V16.2623C55.5155 16.3656 55.3069 16.461 55.0414 16.5484C54.7836 16.6279 54.4915 16.7034 54.1654 16.775C53.8392 16.8386 53.5131 16.8982 53.1869 16.9538C52.8608 17.0015 52.5649 17.0452 52.2995 17.0849C51.7306 17.1724 51.2338 17.3115 50.809 17.5022C50.3843 17.693 50.0543 17.9513 49.8192 18.2772C49.584 18.5951 49.4665 18.9925 49.4665 19.4694C49.4665 20.161 49.7054 20.6895 50.1833 21.0551C50.6687 21.4128 51.2831 21.5917 52.0264 21.5917Z" fill="url(#paint2_linear_966_28676)"/>
<path d="M64.3312 0.333831H70.4067L76.8236 16.7392H77.0967L83.5136 0.333831H89.5892V24.7511H84.8107V8.85842H84.6172L78.5872 24.6319H75.3332L69.3031 8.79881H69.1097V24.7511H64.3312V0.333831Z" fill="url(#paint3_linear_966_28676)"/>
<path d="M101.521 25.1088C99.7237 25.1088 98.1764 24.7273 96.8793 23.9642C95.5899 23.1932 94.5962 22.1043 93.8984 20.6975C93.2006 19.2827 92.8517 17.6095 92.8517 15.6781C92.8517 13.7943 93.2006 12.1411 93.8984 10.7183C94.5962 9.29558 95.5785 8.18679 96.8452 7.39195C98.1195 6.59712 99.6137 6.1997 101.328 6.1997C102.481 6.1997 103.554 6.39444 104.548 6.78391C105.549 7.16543 106.421 7.74168 107.165 8.51267C107.915 9.28366 108.5 10.2534 108.917 11.4218C109.334 12.5822 109.542 13.9414 109.542 15.4993V16.8942H94.7859V13.7466H104.98C104.98 13.0154 104.828 12.3676 104.525 11.8033C104.222 11.2389 103.801 10.7978 103.262 10.4799C102.731 10.154 102.113 9.99106 101.408 9.99106C100.672 9.99106 100.02 10.1699 99.4506 10.5276C98.8893 10.8773 98.4494 11.3502 98.1308 11.9464C97.8123 12.5345 97.6492 13.1903 97.6416 13.9136V16.9061C97.6416 17.8122 97.8009 18.5951 98.1195 19.2548C98.4456 19.9146 98.9045 20.4233 99.4961 20.7809C100.088 21.1386 100.789 21.3174 101.601 21.3174C102.14 21.3174 102.633 21.238 103.08 21.079C103.528 20.92 103.911 20.6816 104.229 20.3636C104.548 20.0457 104.79 19.6562 104.957 19.1952L109.44 19.5052C109.213 20.6339 108.746 21.6195 108.041 22.462C107.343 23.2966 106.44 23.9483 105.333 24.4173C104.233 24.8783 102.962 25.1088 101.521 25.1088Z" fill="url(#paint4_linear_966_28676)"/>
<path d="M120.601 25.1088C118.811 25.1088 117.272 24.7114 115.982 23.9165C114.7 23.1138 113.714 22.001 113.024 20.5782C112.341 19.1555 112 17.5181 112 15.6662C112 13.7904 112.345 12.1451 113.035 10.7303C113.733 9.3075 114.723 8.19871 116.005 7.40388C117.287 6.60109 118.811 6.1997 120.579 6.1997C122.103 6.1997 123.438 6.48982 124.584 7.07004C125.729 7.65027 126.635 8.46498 127.303 9.51416C127.97 10.5633 128.338 11.7953 128.406 13.2101H123.833C123.704 12.2961 123.362 11.5609 122.809 11.0045C122.262 10.4401 121.546 10.158 120.658 10.158C119.907 10.158 119.251 10.3726 118.69 10.8018C118.136 11.2231 117.704 11.839 117.393 12.6498C117.082 13.4605 116.926 14.4421 116.926 15.5946C116.926 16.763 117.078 17.7566 117.382 18.5753C117.693 19.3939 118.129 20.0179 118.69 20.4471C119.251 20.8763 119.907 21.0909 120.658 21.0909C121.212 21.0909 121.709 20.9717 122.149 20.7332C122.596 20.4948 122.964 20.149 123.252 19.696C123.548 19.235 123.742 18.6826 123.833 18.0387H128.406C128.33 19.4377 127.966 20.6696 127.314 21.7347C126.669 22.7919 125.778 23.6185 124.64 24.2146C123.503 24.8107 122.156 25.1088 120.601 25.1088Z" fill="url(#paint5_linear_966_28676)"/>
<path d="M136.356 14.1639V24.7511H131.51V0.333831H136.22V9.66915H136.425C136.819 8.58818 137.456 7.74168 138.336 7.12966C139.216 6.50969 140.32 6.1997 141.647 6.1997C142.86 6.1997 143.919 6.47789 144.821 7.03428C145.731 7.58271 146.437 8.37357 146.937 9.40686C147.446 10.4322 147.696 11.6602 147.688 13.0909V24.7511H142.842V13.997C142.849 12.8684 142.576 11.9901 142.022 11.3621C141.476 10.7342 140.71 10.4203 139.724 10.4203C139.064 10.4203 138.48 10.5673 137.972 10.8614C137.471 11.1555 137.077 11.5847 136.789 12.149C136.508 12.7054 136.364 13.3771 136.356 14.1639Z" fill="url(#paint6_linear_966_28676)"/>
<path d="M159.399 25.1088C157.631 25.1088 156.103 24.7154 154.813 23.9285C153.532 23.1336 152.542 22.0288 151.844 20.614C151.146 19.1913 150.797 17.542 150.797 15.6662C150.797 13.7745 151.146 12.1212 151.844 10.7064C152.542 9.28366 153.532 8.17884 154.813 7.39195C156.103 6.59712 157.631 6.1997 159.399 6.1997C161.166 6.1997 162.691 6.59712 163.972 7.39195C165.262 8.17884 166.255 9.28366 166.953 10.7064C167.651 12.1212 168 13.7745 168 15.6662C168 17.542 167.651 19.1913 166.953 20.614C166.255 22.0288 165.262 23.1336 163.972 23.9285C162.691 24.7154 161.166 25.1088 159.399 25.1088ZM159.421 21.1744C160.225 21.1744 160.897 20.9359 161.435 20.459C161.974 19.9742 162.38 19.3145 162.653 18.4799C162.933 17.6453 163.074 16.6955 163.074 15.6304C163.074 14.5653 162.933 13.6155 162.653 12.7809C162.38 11.9464 161.974 11.2866 161.435 10.8018C160.897 10.3169 160.225 10.0745 159.421 10.0745C158.61 10.0745 157.927 10.3169 157.373 10.8018C156.827 11.2866 156.414 11.9464 156.133 12.7809C155.86 13.6155 155.724 14.5653 155.724 15.6304C155.724 16.6955 155.86 17.6453 156.133 18.4799C156.414 19.3145 156.827 19.9742 157.373 20.459C157.927 20.9359 158.61 21.1744 159.421 21.1744Z" fill="url(#paint7_linear_966_28676)"/>
<defs>
<linearGradient id="paint0_linear_966_28676" x1="-175.875" y1="-41.4375" x2="153.46" y2="236.264" gradientUnits="userSpaceOnUse">
<stop offset="0.21799" stop-color="#4200FF" stop-opacity="0.99"/>
<stop offset="1" stop-color="#37E2D5"/>
</linearGradient>
<linearGradient id="paint1_linear_966_28676" x1="-175.875" y1="-41.4375" x2="153.46" y2="236.264" gradientUnits="userSpaceOnUse">
<stop offset="0.21799" stop-color="#4200FF" stop-opacity="0.99"/>
<stop offset="1" stop-color="#37E2D5"/>
</linearGradient>
<linearGradient id="paint2_linear_966_28676" x1="-175.875" y1="-41.4375" x2="153.46" y2="236.264" gradientUnits="userSpaceOnUse">
<stop offset="0.21799" stop-color="#4200FF" stop-opacity="0.99"/>
<stop offset="1" stop-color="#37E2D5"/>
</linearGradient>
<linearGradient id="paint3_linear_966_28676" x1="-175.875" y1="-41.4375" x2="153.46" y2="236.264" gradientUnits="userSpaceOnUse">
<stop offset="0.21799" stop-color="#4200FF" stop-opacity="0.99"/>
<stop offset="1" stop-color="#37E2D5"/>
</linearGradient>
<linearGradient id="paint4_linear_966_28676" x1="-175.875" y1="-41.4375" x2="153.46" y2="236.264" gradientUnits="userSpaceOnUse">
<stop offset="0.21799" stop-color="#4200FF" stop-opacity="0.99"/>
<stop offset="1" stop-color="#37E2D5"/>
</linearGradient>
<linearGradient id="paint5_linear_966_28676" x1="-175.875" y1="-41.4375" x2="153.46" y2="236.264" gradientUnits="userSpaceOnUse">
<stop offset="0.21799" stop-color="#4200FF" stop-opacity="0.99"/>
<stop offset="1" stop-color="#37E2D5"/>
</linearGradient>
<linearGradient id="paint6_linear_966_28676" x1="-175.875" y1="-41.4375" x2="153.46" y2="236.264" gradientUnits="userSpaceOnUse">
<stop offset="0.21799" stop-color="#4200FF" stop-opacity="0.99"/>
<stop offset="1" stop-color="#37E2D5"/>
</linearGradient>
<linearGradient id="paint7_linear_966_28676" x1="-175.875" y1="-41.4375" x2="153.46" y2="236.264" gradientUnits="userSpaceOnUse">
<stop offset="0.21799" stop-color="#4200FF" stop-opacity="0.99"/>
<stop offset="1" stop-color="#37E2D5"/>
</linearGradient>
</defs>
</svg>
