<svg width="64" height="65" viewBox="0 0 64 65" fill="none" xmlns="http://www.w3.org/2000/svg">
<mask id="mask0_1059_31571" style="mask-type:alpha" maskUnits="userSpaceOnUse" x="20" y="20" width="24" height="25">
<rect x="20" y="20.2734" width="24" height="24" fill="#D9D9D9"/>
</mask>
<g mask="url(#mask0_1059_31571)">
<path d="M32 42.2734C29.6833 41.6901 27.771 40.3608 26.263 38.2854C24.7543 36.2108 24 33.9068 24 31.3734V25.2734L32 22.2734L40 25.2734V31.3734C40 33.9068 39.246 36.2108 37.738 38.2854C36.2293 40.3608 34.3167 41.6901 32 42.2734ZM32 37.2734C33.3833 37.2734 34.5627 36.7858 35.538 35.8104C36.5127 34.8358 37 33.6568 37 32.2734C37 30.8901 36.5127 29.7108 35.538 28.7354C34.5627 27.7608 33.3833 27.2734 32 27.2734C30.6167 27.2734 29.4377 27.7608 28.463 28.7354C27.4877 29.7108 27 30.8901 27 32.2734C27 33.6568 27.4877 34.8358 28.463 35.8104C29.4377 36.7858 30.6167 37.2734 32 37.2734ZM33.65 34.6234L31.5 32.4734V29.2734H32.5V32.0734L34.35 33.9234L33.65 34.6234Z" fill="url(#paint0_linear_1059_31571)"/>
</g>
<rect x="2" y="2.27344" width="60" height="60" rx="30" stroke="url(#paint1_linear_1059_31571)" stroke-width="4"/>
<defs>
<linearGradient id="paint0_linear_1059_31571" x1="7.25" y1="-3.62501" x2="60.0449" y2="3.15864" gradientUnits="userSpaceOnUse">
<stop offset="0.21799" stop-color="#4200FF" stop-opacity="0.99"/>
<stop offset="1" stop-color="#37E2D5"/>
</linearGradient>
<linearGradient id="paint1_linear_1059_31571" x1="-67" y1="-82.6016" x2="142.268" y2="-48.9904" gradientUnits="userSpaceOnUse">
<stop offset="0.21799" stop-color="#4200FF" stop-opacity="0.99"/>
<stop offset="1" stop-color="#37E2D5"/>
</linearGradient>
</defs>
</svg>
